<?xml version="1.0" encoding="UTF-8" standalone="no"?><!DOCTYPE svg PUBLIC "-//W3C//DTD SVG 1.1//EN" "http://www.w3.org/Graphics/SVG/1.1/DTD/svg11.dtd"><!-- Generated by graphviz version 2.40.1 (20161225.0304)
 --><!-- Title: G Pages: 1 --><svg xmlns="http://www.w3.org/2000/svg" xmlns:xlink="http://www.w3.org/1999/xlink" width="1040pt" height="449pt" viewBox="0.00 0.00 1040.22 449.24">
<g id="graph0" class="graph" transform="scale(1 1) rotate(0) translate(4 445.2427)">
<title>G</title>
<polygon fill="#ffffff" stroke="transparent" points="-4,4 -4,-445.2427 1036.2235,-445.2427 1036.2235,4 -4,4"/>
<!-- 0 -->
<g id="node1" class="node">
<title>0</title>
<ellipse fill="none" stroke="#000000" cx="516.7057" cy="-399.9477" rx="254.9115" ry="41.0911"/>
<text text-anchor="middle" x="516.7057" y="-412.5477" font-family="Times,serif" font-size="14.00" fill="#000000">0</text>
<text text-anchor="middle" x="516.7057" y="-395.7477" font-family="Times,serif" font-size="14.00" fill="#000000">start -&gt; . NUMBER OP_ADD NUMBER  ( null-terminator )</text>
<text text-anchor="middle" x="516.7057" y="-378.9477" font-family="Times,serif" font-size="14.00" fill="#000000">start -&gt; . NUMBER OP_SUB NUMBER  ( null-terminator )</text>
</g>
<!-- 1 -->
<g id="node2" class="node">
<title>1</title>
<ellipse fill="none" stroke="#000000" cx="516.7057" cy="-264.5576" rx="254.9115" ry="41.0911"/>
<text text-anchor="middle" x="516.7057" y="-277.1576" font-family="Times,serif" font-size="14.00" fill="#000000">1</text>
<text text-anchor="middle" x="516.7057" y="-260.3576" font-family="Times,serif" font-size="14.00" fill="#000000">start -&gt; NUMBER . OP_ADD NUMBER  ( null-terminator )</text>
<text text-anchor="middle" x="516.7057" y="-243.5576" font-family="Times,serif" font-size="14.00" fill="#000000">start -&gt; NUMBER . OP_SUB NUMBER  ( null-terminator )</text>
</g>
<!-- 0&#45;&gt;1 -->
<g id="edge1" class="edge">
<title>0-&gt;1</title>
<path fill="none" stroke="#000000" d="M516.7057,-358.5905C516.7057,-345.1991 516.7057,-330.1786 516.7057,-316.1397"/>
<polygon fill="#000000" stroke="#000000" points="520.2058,-316.128 516.7057,-306.128 513.2058,-316.1281 520.2058,-316.128"/>
<text text-anchor="middle" x="555.5928" y="-328.0526" font-family="Times,serif" font-size="14.00" fill="#000000">NUMBER : 1</text>
</g>
<!-- 2 -->
<g id="node3" class="node">
<title>2</title>
<ellipse fill="none" stroke="#000000" cx="254.7057" cy="-141.0469" rx="254.9115" ry="29.3315"/>
<text text-anchor="middle" x="254.7057" y="-145.2469" font-family="Times,serif" font-size="14.00" fill="#000000">2</text>
<text text-anchor="middle" x="254.7057" y="-128.4469" font-family="Times,serif" font-size="14.00" fill="#000000">start -&gt; NUMBER OP_ADD . NUMBER  ( null-terminator )</text>
</g>
<!-- 1&#45;&gt;2 -->
<g id="edge2" class="edge">
<title>1-&gt;2</title>
<path fill="none" stroke="#000000" d="M433.8072,-225.4781C398.7265,-208.9405 358.3015,-189.8835 324.7447,-174.0644"/>
<polygon fill="#000000" stroke="#000000" points="326.01,-170.7915 315.4723,-169.6932 323.0251,-177.1232 326.01,-170.7915"/>
<text text-anchor="middle" x="422.2555" y="-192.6626" font-family="Times,serif" font-size="14.00" fill="#000000">OP_ADD : 2</text>
</g>
<!-- 3 -->
<g id="node4" class="node">
<title>3</title>
<ellipse fill="none" stroke="#000000" cx="779.7057" cy="-141.0469" rx="252.5357" ry="29.3315"/>
<text text-anchor="middle" x="779.7057" y="-145.2469" font-family="Times,serif" font-size="14.00" fill="#000000">3</text>
<text text-anchor="middle" x="779.7057" y="-128.4469" font-family="Times,serif" font-size="14.00" fill="#000000">start -&gt; NUMBER OP_SUB . NUMBER  ( null-terminator )</text>
</g>
<!-- 1&#45;&gt;3 -->
<g id="edge3" class="edge">
<title>1-&gt;3</title>
<path fill="none" stroke="#000000" d="M599.9205,-225.4781C635.1351,-208.9405 675.7145,-189.8835 709.3993,-174.0644"/>
<polygon fill="#000000" stroke="#000000" points="711.1434,-177.1121 718.7071,-169.6932 708.1678,-170.776 711.1434,-177.1121"/>
<text text-anchor="middle" x="707.7085" y="-192.6626" font-family="Times,serif" font-size="14.00" fill="#000000">OP_SUB : 3</text>
</g>
<!-- 4 -->
<g id="node5" class="node">
<title>4</title>
<ellipse fill="none" stroke="#000000" cx="254.7057" cy="-29.4156" rx="254.9115" ry="29.3315"/>
<text text-anchor="middle" x="254.7057" y="-33.6156" font-family="Times,serif" font-size="14.00" fill="#000000">4</text>
<text text-anchor="middle" x="254.7057" y="-16.8156" font-family="Times,serif" font-size="14.00" fill="#000000">start -&gt; NUMBER OP_ADD NUMBER .  ( null-terminator )</text>
</g>
<!-- 2&#45;&gt;4 -->
<g id="edge4" class="edge">
<title>2-&gt;4</title>
<path fill="none" stroke="#000000" d="M254.7057,-111.4249C254.7057,-98.5568 254.7057,-83.2867 254.7057,-69.4319"/>
<polygon fill="#000000" stroke="#000000" points="258.2058,-69.1761 254.7057,-59.1761 251.2058,-69.1762 258.2058,-69.1761"/>
<text text-anchor="middle" x="293.5928" y="-81.0313" font-family="Times,serif" font-size="14.00" fill="#000000">NUMBER : 1</text>
</g>
<!-- 5 -->
<g id="node6" class="node">
<title>5</title>
<ellipse fill="none" stroke="#000000" cx="779.7057" cy="-29.4156" rx="252.5357" ry="29.3315"/>
<text text-anchor="middle" x="779.7057" y="-33.6156" font-family="Times,serif" font-size="14.00" fill="#000000">5</text>
<text text-anchor="middle" x="779.7057" y="-16.8156" font-family="Times,serif" font-size="14.00" fill="#000000">start -&gt; NUMBER OP_SUB NUMBER .  ( null-terminator )</text>
</g>
<!-- 3&#45;&gt;5 -->
<g id="edge5" class="edge">
<title>3-&gt;5</title>
<path fill="none" stroke="#000000" d="M779.7057,-111.4249C779.7057,-98.5568 779.7057,-83.2867 779.7057,-69.4319"/>
<polygon fill="#000000" stroke="#000000" points="783.2058,-69.1761 779.7057,-59.1761 776.2058,-69.1762 783.2058,-69.1761"/>
<text text-anchor="middle" x="818.5928" y="-81.0313" font-family="Times,serif" font-size="14.00" fill="#000000">NUMBER : 1</text>
</g>
</g>
</svg>